<mxfile host="app.diagrams.net" modified="2024-06-27T14:14:52.550Z" agent="Mozilla/5.0 (Windows NT 10.0; Win64; x64) AppleWebKit/537.36 (KHTML, like Gecko) Chrome/126.0.0.0 Safari/537.36" etag="zH7o8nTmljwLOXJ0_hB2" version="24.6.3" type="github">
  <diagram name="Pagina-1" id="GBjpNhVKjrx_stsm28uE">
    <mxGraphModel dx="1050" dy="530" grid="1" gridSize="10" guides="1" tooltips="1" connect="1" arrows="1" fold="1" page="1" pageScale="1" pageWidth="827" pageHeight="1169" math="0" shadow="0">
      <root>
        <mxCell id="0" />
        <mxCell id="1" parent="0" />
        <mxCell id="-WWf9vYcARfzHzerBWzE-11" style="edgeStyle=orthogonalEdgeStyle;rounded=0;orthogonalLoop=1;jettySize=auto;html=1;exitX=0.5;exitY=1;exitDx=0;exitDy=0;" edge="1" parent="1" source="-WWf9vYcARfzHzerBWzE-1">
          <mxGeometry relative="1" as="geometry">
            <mxPoint x="305" y="170" as="targetPoint" />
          </mxGeometry>
        </mxCell>
        <mxCell id="-WWf9vYcARfzHzerBWzE-1" value="Utente" style="html=1;whiteSpace=wrap;" vertex="1" parent="1">
          <mxGeometry x="250" y="80" width="110" height="50" as="geometry" />
        </mxCell>
        <mxCell id="-WWf9vYcARfzHzerBWzE-31" style="edgeStyle=orthogonalEdgeStyle;rounded=0;orthogonalLoop=1;jettySize=auto;html=1;exitX=0.5;exitY=0;exitDx=0;exitDy=0;entryX=0.5;entryY=0;entryDx=0;entryDy=0;" edge="1" parent="1" source="-WWf9vYcARfzHzerBWzE-4" target="-WWf9vYcARfzHzerBWzE-25">
          <mxGeometry relative="1" as="geometry" />
        </mxCell>
        <mxCell id="-WWf9vYcARfzHzerBWzE-4" value="Menu" style="html=1;whiteSpace=wrap;direction=west;" vertex="1" parent="1">
          <mxGeometry x="250" y="420" width="110" height="50" as="geometry" />
        </mxCell>
        <mxCell id="-WWf9vYcARfzHzerBWzE-6" value="Aggiungi alla lista" style="html=1;whiteSpace=wrap;" vertex="1" parent="1">
          <mxGeometry x="120" y="700" width="110" height="50" as="geometry" />
        </mxCell>
        <mxCell id="-WWf9vYcARfzHzerBWzE-12" value="è già registrato?" style="rhombus;whiteSpace=wrap;html=1;fontColor=#000000;fillColor=#ffffc0;strokeColor=#ff0000;" vertex="1" parent="1">
          <mxGeometry x="230" y="170" width="150" height="60" as="geometry" />
        </mxCell>
        <mxCell id="-WWf9vYcARfzHzerBWzE-13" value="no" style="edgeStyle=orthogonalEdgeStyle;html=1;align=left;verticalAlign=bottom;endArrow=open;endSize=8;strokeColor=#ff0000;rounded=0;" edge="1" source="-WWf9vYcARfzHzerBWzE-12" parent="1">
          <mxGeometry x="-1" relative="1" as="geometry">
            <mxPoint x="450" y="200" as="targetPoint" />
          </mxGeometry>
        </mxCell>
        <mxCell id="-WWf9vYcARfzHzerBWzE-14" value="yes" style="edgeStyle=orthogonalEdgeStyle;html=1;align=left;verticalAlign=top;endArrow=open;endSize=8;strokeColor=#ff0000;rounded=0;" edge="1" source="-WWf9vYcARfzHzerBWzE-12" parent="1">
          <mxGeometry x="-1" relative="1" as="geometry">
            <mxPoint x="305" y="280" as="targetPoint" />
          </mxGeometry>
        </mxCell>
        <mxCell id="-WWf9vYcARfzHzerBWzE-18" style="edgeStyle=orthogonalEdgeStyle;rounded=0;orthogonalLoop=1;jettySize=auto;html=1;exitX=0.5;exitY=1;exitDx=0;exitDy=0;" edge="1" parent="1" source="-WWf9vYcARfzHzerBWzE-15">
          <mxGeometry relative="1" as="geometry">
            <mxPoint x="305" y="420" as="targetPoint" />
          </mxGeometry>
        </mxCell>
        <mxCell id="-WWf9vYcARfzHzerBWzE-15" value="Login" style="html=1;whiteSpace=wrap;" vertex="1" parent="1">
          <mxGeometry x="250" y="280" width="110" height="50" as="geometry" />
        </mxCell>
        <mxCell id="-WWf9vYcARfzHzerBWzE-17" style="edgeStyle=orthogonalEdgeStyle;rounded=0;orthogonalLoop=1;jettySize=auto;html=1;exitX=1;exitY=0.5;exitDx=0;exitDy=0;entryX=1;entryY=0.75;entryDx=0;entryDy=0;" edge="1" parent="1" source="-WWf9vYcARfzHzerBWzE-16" target="-WWf9vYcARfzHzerBWzE-15">
          <mxGeometry relative="1" as="geometry">
            <mxPoint x="670" y="320" as="targetPoint" />
            <Array as="points">
              <mxPoint x="580" y="200" />
              <mxPoint x="580" y="318" />
            </Array>
          </mxGeometry>
        </mxCell>
        <mxCell id="-WWf9vYcARfzHzerBWzE-16" value="registrazione" style="html=1;whiteSpace=wrap;" vertex="1" parent="1">
          <mxGeometry x="450" y="175" width="110" height="50" as="geometry" />
        </mxCell>
        <mxCell id="-WWf9vYcARfzHzerBWzE-30" style="edgeStyle=orthogonalEdgeStyle;rounded=0;orthogonalLoop=1;jettySize=auto;html=1;exitX=0.5;exitY=0;exitDx=0;exitDy=0;entryX=0;entryY=0.5;entryDx=0;entryDy=0;" edge="1" parent="1" source="-WWf9vYcARfzHzerBWzE-20" target="-WWf9vYcARfzHzerBWzE-4">
          <mxGeometry relative="1" as="geometry" />
        </mxCell>
        <mxCell id="-WWf9vYcARfzHzerBWzE-20" value="Crea Lista della Spesa" style="html=1;whiteSpace=wrap;" vertex="1" parent="1">
          <mxGeometry x="510" y="510" width="120" height="55" as="geometry" />
        </mxCell>
        <mxCell id="-WWf9vYcARfzHzerBWzE-21" value="Modifica lista" style="html=1;whiteSpace=wrap;" vertex="1" parent="1">
          <mxGeometry x="250" y="700" width="110" height="50" as="geometry" />
        </mxCell>
        <mxCell id="-WWf9vYcARfzHzerBWzE-24" value="Elimina Elemento" style="html=1;whiteSpace=wrap;" vertex="1" parent="1">
          <mxGeometry x="400" y="700" width="110" height="50" as="geometry" />
        </mxCell>
        <mxCell id="-WWf9vYcARfzHzerBWzE-28" style="edgeStyle=orthogonalEdgeStyle;rounded=0;orthogonalLoop=1;jettySize=auto;html=1;exitX=0.5;exitY=1;exitDx=0;exitDy=0;" edge="1" parent="1" source="-WWf9vYcARfzHzerBWzE-32" target="-WWf9vYcARfzHzerBWzE-21">
          <mxGeometry relative="1" as="geometry" />
        </mxCell>
        <mxCell id="-WWf9vYcARfzHzerBWzE-44" style="edgeStyle=orthogonalEdgeStyle;rounded=0;orthogonalLoop=1;jettySize=auto;html=1;exitX=1;exitY=0.5;exitDx=0;exitDy=0;entryX=0;entryY=0.5;entryDx=0;entryDy=0;" edge="1" parent="1" source="-WWf9vYcARfzHzerBWzE-25" target="-WWf9vYcARfzHzerBWzE-20">
          <mxGeometry relative="1" as="geometry" />
        </mxCell>
        <mxCell id="-WWf9vYcARfzHzerBWzE-25" value="Esiste la una lista" style="rhombus;whiteSpace=wrap;html=1;fontColor=#000000;fillColor=#ffffc0;strokeColor=#ff0000;" vertex="1" parent="1">
          <mxGeometry x="245" y="495" width="120" height="70" as="geometry" />
        </mxCell>
        <mxCell id="-WWf9vYcARfzHzerBWzE-29" value="yes" style="text;html=1;align=center;verticalAlign=middle;resizable=0;points=[];autosize=1;strokeColor=none;fillColor=none;" vertex="1" parent="1">
          <mxGeometry x="300" y="558" width="40" height="30" as="geometry" />
        </mxCell>
        <mxCell id="-WWf9vYcARfzHzerBWzE-36" style="edgeStyle=orthogonalEdgeStyle;rounded=0;orthogonalLoop=1;jettySize=auto;html=1;exitX=0;exitY=0.5;exitDx=0;exitDy=0;entryX=0.5;entryY=0;entryDx=0;entryDy=0;" edge="1" parent="1" source="-WWf9vYcARfzHzerBWzE-32" target="-WWf9vYcARfzHzerBWzE-6">
          <mxGeometry relative="1" as="geometry" />
        </mxCell>
        <mxCell id="-WWf9vYcARfzHzerBWzE-40" style="edgeStyle=orthogonalEdgeStyle;rounded=0;orthogonalLoop=1;jettySize=auto;html=1;exitX=1;exitY=0.5;exitDx=0;exitDy=0;entryX=0.5;entryY=0;entryDx=0;entryDy=0;" edge="1" parent="1" source="-WWf9vYcARfzHzerBWzE-32" target="-WWf9vYcARfzHzerBWzE-24">
          <mxGeometry relative="1" as="geometry" />
        </mxCell>
        <mxCell id="-WWf9vYcARfzHzerBWzE-38" value="Elimina Lista" style="html=1;whiteSpace=wrap;" vertex="1" parent="1">
          <mxGeometry x="550" y="700" width="110" height="50" as="geometry" />
        </mxCell>
        <mxCell id="-WWf9vYcARfzHzerBWzE-41" style="edgeStyle=orthogonalEdgeStyle;rounded=0;orthogonalLoop=1;jettySize=auto;html=1;exitX=1;exitY=0.5;exitDx=0;exitDy=0;entryX=0.567;entryY=-0.008;entryDx=0;entryDy=0;entryPerimeter=0;" edge="1" parent="1" source="-WWf9vYcARfzHzerBWzE-32" target="-WWf9vYcARfzHzerBWzE-38">
          <mxGeometry relative="1" as="geometry" />
        </mxCell>
        <mxCell id="-WWf9vYcARfzHzerBWzE-42" value="Condividi lista" style="html=1;whiteSpace=wrap;" vertex="1" parent="1">
          <mxGeometry y="700" width="110" height="50" as="geometry" />
        </mxCell>
        <mxCell id="-WWf9vYcARfzHzerBWzE-43" value="" style="edgeStyle=orthogonalEdgeStyle;rounded=0;orthogonalLoop=1;jettySize=auto;html=1;exitX=0.5;exitY=1;exitDx=0;exitDy=0;" edge="1" parent="1" source="-WWf9vYcARfzHzerBWzE-25" target="-WWf9vYcARfzHzerBWzE-32">
          <mxGeometry relative="1" as="geometry">
            <mxPoint x="305" y="565" as="sourcePoint" />
            <mxPoint x="305" y="700" as="targetPoint" />
          </mxGeometry>
        </mxCell>
        <mxCell id="-WWf9vYcARfzHzerBWzE-46" style="edgeStyle=orthogonalEdgeStyle;rounded=0;orthogonalLoop=1;jettySize=auto;html=1;exitX=0;exitY=0.5;exitDx=0;exitDy=0;entryX=0.5;entryY=0;entryDx=0;entryDy=0;" edge="1" parent="1" source="-WWf9vYcARfzHzerBWzE-32" target="-WWf9vYcARfzHzerBWzE-42">
          <mxGeometry relative="1" as="geometry" />
        </mxCell>
        <mxCell id="-WWf9vYcARfzHzerBWzE-32" value="Opzioni" style="rhombus;whiteSpace=wrap;html=1;fontColor=#000000;fillColor=#ffffc0;strokeColor=#ff0000;" vertex="1" parent="1">
          <mxGeometry x="265" y="610" width="80" height="40" as="geometry" />
        </mxCell>
        <mxCell id="-WWf9vYcARfzHzerBWzE-45" value="no" style="text;html=1;align=center;verticalAlign=middle;resizable=0;points=[];autosize=1;strokeColor=none;fillColor=none;" vertex="1" parent="1">
          <mxGeometry x="350" y="508" width="40" height="30" as="geometry" />
        </mxCell>
        <mxCell id="-WWf9vYcARfzHzerBWzE-49" style="edgeStyle=orthogonalEdgeStyle;rounded=0;orthogonalLoop=1;jettySize=auto;html=1;exitX=1;exitY=0.5;exitDx=0;exitDy=0;entryX=1;entryY=0.5;entryDx=0;entryDy=0;" edge="1" parent="1" source="-WWf9vYcARfzHzerBWzE-48" target="-WWf9vYcARfzHzerBWzE-4">
          <mxGeometry relative="1" as="geometry" />
        </mxCell>
        <mxCell id="-WWf9vYcARfzHzerBWzE-48" value="Notifica modifica della lista di un altro utente" style="ellipse;whiteSpace=wrap;html=1;" vertex="1" parent="1">
          <mxGeometry x="40" y="405" width="140" height="75" as="geometry" />
        </mxCell>
      </root>
    </mxGraphModel>
  </diagram>
</mxfile>
